<?xml version="1.0" encoding="utf-8"?>
<!-- Generator: Adobe Illustrator 24.0.1, SVG Export Plug-In . SVG Version: 6.00 Build 0)  -->
<svg version="1.1" id="Layer_1" xmlns="http://www.w3.org/2000/svg" xmlns:xlink="http://www.w3.org/1999/xlink" x="0px" y="0px"
	 viewBox="0 0 595.28 841.89" style="enable-background:new 0 0 595.28 841.89;" xml:space="preserve">
<style type="text/css">
	.st0{fill:#FDBE6A;}
	.st1{fill:#8AA771;}
	.st2{fill:#8BA287;}
	.st3{fill:#808182;}
</style>
<path class="st0" d="M89.07,367.32c0,1.19-0.96,2.15-2.15,2.15c-1.19,0-2.15-0.96-2.15-2.15c0-1.18,0.96-2.15,2.15-2.15
	C88.11,365.17,89.07,366.14,89.07,367.32z"/>
<path class="st0" d="M110.16,349.42c0,1.19-0.97,2.16-2.15,2.16c-1.19,0-2.15-0.97-2.15-2.16c0-1.19,0.96-2.15,2.15-2.15
	C109.2,347.27,110.16,348.23,110.16,349.42z"/>
<path class="st0" d="M145.28,349.15c0,1.18-0.96,2.15-2.15,2.15c-1.19,0-2.15-0.97-2.15-2.15c0-1.19,0.96-2.16,2.15-2.16
	C144.31,346.99,145.28,347.97,145.28,349.15z"/>
<path class="st0" d="M166.72,367.11c0,1.19-0.97,2.15-2.15,2.15c-1.19,0-2.16-0.96-2.16-2.15c0-1.18,0.97-2.15,2.16-2.15
	C165.76,364.96,166.72,365.93,166.72,367.11z"/>
<g>
	<path class="st1" d="M95.59,386.69c-2.9-4.71-5.26-9.39-7.39-14.23c0.7-0.34,1.27-0.6,1.88-0.89c2.43,4.66,5.36,8.85,9.28,12.58
		c1.4-6,1.72-11.87,1.47-17.77c0.97-0.07,0.85,0.57,0.85,1.03c0.01,4.54-0.03,9.07,0,13.6c0.06,8.13,4.05,13.72,11.22,17.19
		c1.71,0.83,3.52,1.3,5.47,1.16c0.05-0.19,0.11-0.32,0.11-0.44c0.22-5.88-0.04-11.71-2.01-17.32c-1.38-3.93-3.3-7.56-6.63-10.23
		c-2.19-1.78-4.43-3.5-6.73-5.33c0.08-0.12,0.22-0.36,0.36-0.59c1.37,0.74,2.67,1.42,4.02,2.15c2.38-4.25,2.96-8.48,1.67-12.99
		c0.46-0.18,0.85-0.34,1.28-0.5c2.04,4.82,1.59,9.56,0.2,14.3c1.45,1.19,2.85,2.33,4.31,3.53c4.63-6.93,7.14-14.42,7.05-22.76h1.04
		c-0.34,8.65-3.09,16.55-6.71,24.19c5.13,5.55,6.72,12.41,7.56,19.52h3.79c0.87-7.14,2.27-14.06,7.18-19.45
		c-1.56-4.07-3.17-8-4.54-12.01c-1.37-4.03-2.17-8.2-2.33-12.61c0.44,0.08,0.7,0.12,1.01,0.19c0.02,4.15,0.72,8.09,1.94,11.95
		c1.23,3.9,3.2,7.4,5.42,10.87c1.49-1.23,2.89-2.38,4.35-3.58c-1.43-4.76-2.03-9.53,0.02-14.37c0.48,0.2,0.84,0.35,1.24,0.5
		c-1.21,4.62-0.53,8.89,1.88,13.13c1.28-0.74,2.56-1.46,3.83-2.19c0.26,0.18,0.56,0.35,0.85,0.51c-1.65,1.18-3.29,2.35-4.91,3.56
		c-4.34,3.24-7.24,7.48-8.81,12.67c-1.44,4.79-1.87,9.69-1.69,14.65c0.03,0.86,0,1.73,0,2.65c0.48,0.02,0.78,0.05,1.08,0.05
		c0.34-0.01,0.68-0.01,1.01-0.08c6.98-1.53,11.54-5.81,13.94-12.48c1.12-3.11,0.76-6.35,0.71-9.54c-0.05-3.22-0.11-6.43-0.11-9.64
		c0-0.35,0.32-0.69,0.5-1.03c0.11,0.05,0.21,0.09,0.31,0.13c-0.17,5.78,0.18,11.48,1.7,17.22c0.35-0.25,0.5-0.33,0.61-0.44
		c3.37-3.62,6.32-7.55,8.53-12.1c0.65,0.32,1.19,0.6,2.01,1c-2.4,4.76-4.76,9.43-7.18,14.22c9.49,0.72,18.38-1.44,27.22-4.64
		c-1.12-1.67-2.63-2.54-4.29-3.11c-3.24-1.14-6.74-0.36-8.13,3.28c-0.39,1.03-1.16,1.69-2.19,1.94c-1.73,0.41-3.48,0.78-5.24,1.03
		c-1.35,0.18-2.72,0.14-4.35,0.21c0.55-1.07,1-1.86,1.38-2.66c1.06-2.24,2.61-3.06,4.98-2.45c2.23,0.58,4.32,0.37,6.35-0.77
		c2.67-1.51,4.79-3.47,5.78-6.64c-2.68-0.51-5.26-0.56-7.84,0.13c-2.66,0.71-4.58,2.54-6.59,4.34c0.71-1.6,1.42-3.18,2.03-4.56
		c1.28-0.77,2.36-1.43,3.54-2.14c3.61,0.59,6.94-0.36,10-2.88c-2.16-2.31-4.68-3.23-7.96-2.83c2.37-2.31,3.32-4.81,2.93-8.04
		c-1.2,0.43-2.26,0.75-3.27,1.19c-1,0.44-1.93,1-3.02,1.58c0.92-3.38,0.21-6.31-2.19-9.08c-3.41,3.58-4.6,7.7-4.02,12.36
		c-2.08,1.81-2.42,3.99-1.59,6.54c-1.08,1.9-2.18,3.83-3.29,5.77c-0.13-0.07-0.26-0.13-0.39-0.18c1.03-1.81,2.23-3.55,2.16-5.74
		c-0.07-2.17-0.59-4.18-2.12-6.07c-0.55,0.73-1.03,1.31-1.44,1.94c-1.51,2.34-2.27,4.71-1.84,7.15c-0.01,0.13-0.02,0.25-0.02,0.35
		c0,0.32,0.14,0.61,0.33,0.86c0.23,0.69,0.57,1.38,1.01,2.08c0.87,1.38,0.25,3.05-1.31,3.83c-0.86-2.33-1.38-11.16-0.82-13.99
		c8.62-6.49,11.13-13.72,10.35-19.3c-2.28,0.97-4.36,2.09-5.93,4.07c-2.02,2.57-2.08,5.47-1.57,8.6c-0.81,0.65-1.63,1.28-2.45,1.93
		c-0.09-0.06-0.18-0.13-0.26-0.2c0.51-3.53,1.05-7.06,1.57-10.59c-0.12-0.04-0.24-0.08-0.35-0.11c-4.13,3.71-8,7.54-6.42,13.95
		c0.01,0.11,0.02,0.21,0.03,0.31c-0.66,0.33-1.3,0.65-1.99,1c-1.65-3.54-2.27-7.03-0.87-10.72c1.96-0.5,3.29-1.71,3.99-3.58
		c4.56-0.5,8.07-2.56,10.52-6.67c-3.75-1.11-7.13-0.44-10.62,0.8c1.12-2.94,1.39-5.69,0.39-8.84c-1.32,1.01-2.6,1.75-3.55,2.79
		c-0.97,1.06-1.62,2.42-2.39,3.65c-0.69-3.42-2.73-5.94-5.87-7.9c-0.94,4.4-1.47,8.51,1.92,12.01c-0.87,2.02-0.71,3.92,0.47,5.73
		c-2.39,4.89-2.11,9.91-0.79,15.03c-0.71,0.53-1.38,1-2.13,1.55c-0.6-1.08-1.1-2.06-1.67-3.01c-1.39-2.32-1.25-4.37,0.5-6.59
		c2.34-2.94,3.35-6.38,2.5-10.19c-0.33-1.44-0.75-2.85-1.88-4.07c-1.87,1.89-3.44,3.83-3.99,6.42c-0.45,2.15-0.18,4.24,0.65,6.27
		c0.42,1,0.59,2.04,0.06,3.08c-1.23-3.8-1.96-7.69-1.95-11.62c4.35-4.83,3.49-12.79-1.73-16.01c-0.17,0.4-0.36,0.79-0.5,1.21
		c-1.01,2.79-1.3,5.71-1.39,8.66c-0.21,7.2,1.29,14.12,3.34,20.94c0.82,2.71,1.9,5.34,2.85,8.02c-1.02,1.35-2.05,2.73-3.08,4.1
		c-0.1-0.65-0.06-1.26,0.16-1.79c1.31-3.2,1-6.36-0.21-9.49c-0.32-0.85-0.86-1.63-1.41-2.63c-1.79,3.09-2.71,6.07-1.95,9.34
		c0.37,1.57,1.05,3.07,1.6,4.59c0.49,1.34,0.54,2.66,0.1,4.06c-0.68,2.19-1.23,4.42-1.8,6.63c-0.18,0.7-0.27,1.44-0.4,2.13
		c-0.69-2.62-1.18-5.26-2.11-7.75c-0.81-2.16-0.73-4.1,0.15-6.15c0.41-0.94,0.75-1.89,0.99-2.86c0,0,0,0,0,0c0,0,0,0,0-0.01
		c0.35-1.43,0.47-2.89,0.15-4.44c-0.38-1.81-0.89-3.56-2.1-5.16c-0.22,0.31-0.39,0.51-0.52,0.74c-1.87,3.5-2.48,7.12-0.97,10.93
		c0.24,0.61,0.3,1.29,0.45,1.94c-0.07,0.01-0.16,0.02-0.22,0.04c-1.05-1.35-2.09-2.7-3.2-4.14c0.1-0.26,0.2-0.6,0.34-0.94
		c1.8-4.43,3.17-8.98,4.12-13.66c1.25-6.14,1.9-12.29,0.91-18.53c-0.3-1.86-0.73-3.69-1.62-5.49c-2.43,2.16-3.92,4.7-4.37,7.79
		c-0.47,3.21,0.69,5.91,2.92,8.09c0.2,3.6-0.94,10.6-1.9,11.71c-0.5-1.36-0.08-2.6,0.37-3.85c1.69-4.7-0.56-9.22-3.91-11.75
		c-1.19,1.71-1.75,3.64-1.82,5.7c-0.14,3.53,1.25,6.5,3.4,9.21c0.38,0.48,0.69,1.09,0.82,1.68c0.67,2.83-1.44,4.66-2.39,7.06
		c-0.84-0.6-1.52-1.07-2.22-1.57c1.35-5.15,1.44-10.13-1-14.94c1.14-1.85,1.32-3.76,0.4-5.68c3.37-3.58,2.84-8.83,1.52-11.85
		c-1.04,0.69-1.97,1.46-2.76,2.33c-0.01,0.01-0.02,0.02-0.03,0.02c0,0.01-0.01,0.02-0.02,0.02c-1.39,1.54-2.36,3.38-2.79,5.63
		c-0.99-3.08-3.02-5.1-5.94-6.46c-0.98,3.02-0.5,5.78,0.56,8.64c-3.54-1.35-6.9-1.96-10.61-0.87c2.58,4.05,6.09,6.18,10.64,6.58
		c0.73,1.94,2.09,3.1,4.02,3.62c1.32,3.69,0.86,7.17-0.78,10.7c-0.82-0.42-1.45-0.75-2.12-1.1c0.86-2.9,0.57-5.56-1.03-8.05
		c-1.5-2.33-3.12-4.54-5.83-6.05c0.34,1.97,0.65,3.7,0.95,5.45c0.29,1.77,0.56,3.56,0.84,5.33c-0.08,0.05-0.17,0.11-0.25,0.15
		c-0.87-0.7-1.75-1.41-2.57-2.05c0.49-2.87,0.44-5.48-1.22-7.85c-1.6-2.28-3.75-3.75-6.51-4.68c-0.07,8.7,4.53,14.49,10.9,19.22
		c0.3,4.71,0.21,9.35-0.7,14c-1.8-1.27-2.3-2.56-1.43-3.96c1.97-3.18,1.63-6.32-0.08-9.41c-0.55-1.01-1.32-1.88-2.05-2.9
		c-0.28,0.34-0.38,0.46-0.48,0.6c-1.83,2.86-2.27,6.87,0.09,10c0.26,0.36,0.38,0.84,0.57,1.27c-0.13,0.06-0.25,0.13-0.37,0.18
		c-1-1.79-2.02-3.57-2.98-5.37c-0.17-0.31-0.31-0.74-0.21-1.05c0.65-2.37-0.04-4.31-1.84-5.97c0.57-4.7-0.85-8.7-4.15-12.23
		c-2.39,2.83-2.94,5.83-1.87,9.39c-2.1-1.51-4.1-2.54-6.49-2.89c-0.19,1.56-0.05,2.99,0.59,4.26c0.61,1.23,1.5,2.33,2.27,3.47
		c-3.9,0.04-6.3,0.94-7.58,2.93c2.99,2.35,6.31,3.29,9.92,2.65c1.15,0.69,2.2,1.33,3.58,2.16c0.63,1.38,1.42,3.09,2.21,4.8
		c-0.41-0.29-0.87-0.53-1.21-0.89c-3.68-3.95-8.27-4.5-13.44-3.65c0.29,0.62,0.5,1.14,0.78,1.64c1.22,2.15,3.08,3.61,5.25,4.76
		c1.88,0.99,3.79,1.39,5.86,0.83c1.52-0.42,3.01-0.39,4.18,0.72c1.22,1.13,1.65,2.77,2.54,4.35c-3.58,0.01-6.89-0.15-10.03-1.27
		c-0.73-0.25-1.4-1.07-1.78-1.8c-0.91-1.76-2.16-2.98-4.12-3.44c-2.23-0.52-4.27,0.26-6.27,1.07c-1.06,0.44-2.03,1.1-3.03,1.66
		c0.03,0.13,0.06,0.26,0.09,0.39C76.45,384.73,85.6,387.48,95.59,386.69z M148.3,378.93c-0.1,5.21-1.87,9.76-5.37,13.66
		c-1.88,2.1-4.21,3.32-6.88,4.01c-0.19,0.05-0.4,0.05-0.6,0.05c-0.06,0.01-0.12-0.05-0.26-0.13c-0.11-1.24,0.32-2.32,1.42-2.95
		c0.82-0.49,1.77-0.82,2.7-1.08c4.49-1.2,6.95-6.52,7.08-10.05c0.01-0.12-0.07-0.25-0.13-0.42c-5.29,1.26-8.89,4.34-10.56,9.62
		c-0.13-0.05-0.26-0.11-0.38-0.16c0.25-1.85,0.34-3.75,0.79-5.56c0.32-1.3,1.46-2.01,2.81-2.33c1.11-0.26,2.23-0.54,3.28-0.99
		c2.54-1.11,3.58-3.39,4.19-5.88c0.34-1.38,0.39-2.83,0.6-4.53c-1.57,0.37-2.68,0.96-3.67,1.74c-1,0.8-1.86,1.7-2.62,2.68
		c-0.3,0.31-0.56,0.6-0.72,0.8c-0.13,0.17-0.25,0.42-0.36,0.72c-0.62,0.97-1.17,2-1.67,3.07c-0.2,0.42-0.5,0.79-0.89,1.09
		c1.54-6.32,6.24-10.14,11-14.08c0.12,0.27,0.21,0.38,0.21,0.49C148.3,372.1,148.37,375.52,148.3,378.93z M165.24,353.08
		c0.01,0.02,0.02,0.03,0.03,0.05c-0.03,0.01-0.05,0.01-0.08,0.02C165.21,353.13,165.22,353.11,165.24,353.08z M164.53,364.09
		c1.77,0,3.2,1.39,3.17,3.11c-0.02,1.65-1.43,3.02-3.16,3.03c-1.75,0.01-3.08-1.35-3.08-3.16
		C161.46,365.46,162.88,364.09,164.53,364.09z M150.51,363.65c1.91-1.19,3.75-2.47,5.45-3.98c-0.92,1.11-1.89,2.13-3.01,2.97
		c-0.87,0.65-1.76,1.28-2.64,1.92C150.38,364.23,150.45,363.92,150.51,363.65z M143.09,346.08c1.73,0.01,3.08,1.42,3.09,3.22
		c0.01,1.61-1.39,3.01-3.04,3.03c-1.69,0.02-3.12-1.42-3.13-3.17C139.99,347.48,141.41,346.07,143.09,346.08z M117.83,356.42
		c0.03-0.03,0.07-0.07,0.1-0.1c-0.03,0.08-0.04,0.16-0.08,0.24C117.85,356.51,117.84,356.46,117.83,356.42z M104.9,349.49
		c-0.02-1.77,1.3-3.17,2.99-3.2c1.71-0.02,3.19,1.42,3.2,3.14c0.01,1.76-1.31,3.15-3.01,3.15
		C106.3,352.59,104.92,351.25,104.9,349.49z M103.26,368.24c4.78,4,9.59,7.76,11.29,14.02c-0.09,0.08-0.19,0.15-0.29,0.22
		c-0.27-0.42-0.58-0.83-0.79-1.28c-0.61-1.34-1.32-2.61-2.17-3.77c-0.01-0.01-0.01-0.02-0.02-0.03c-0.02-0.02-0.04-0.05-0.06-0.07
		c-0.83-1.13-1.79-2.16-2.91-3.05c-1.02-0.82-2.26-1.36-3.61-2.15c-0.26,2.38,0.17,4.29,0.84,6.17c1.15,3.23,3.59,4.76,6.81,5.31
		c2.02,0.34,3.14,1.54,3.39,3.58c0.16,1.45,0.33,2.89,0.49,4.33c0.01,0.07-0.03,0.12-0.16,0.32c-1.81-5.24-5.34-8.51-10.92-9.76
		c0.1,0.82,0.09,1.55,0.27,2.23c0.73,2.66,1.89,5.11,4.21,6.75c1.07,0.74,2.39,1.19,3.64,1.66c1.1,0.41,2.2,0.78,2.77,1.88
		c0.3,0.58,0.4,1.28,0.64,2.12c-2.29-0.26-4.09-0.98-5.66-2.17c-4.46-3.42-7.07-7.98-7.56-13.55c-0.35-4.06-0.25-8.17-0.35-12.25
		C103.09,368.65,103.16,368.56,103.26,368.24z M93.99,358.38c0.01,0.01,0.02,0.01,0.02,0.02c0,0.01,0.01,0.02,0.01,0.02
		C94.01,358.41,94,358.4,93.99,358.38z M94.88,359.96c1.07-0.02,4.34,2.88,4.36,3.79C97.69,362.41,96.29,361.18,94.88,359.96z
		 M83.7,367.4c-0.04-1.72,1.38-3.2,3.11-3.22c1.73-0.01,3.19,1.4,3.2,3.12c0.02,1.71-1.34,3.13-3.03,3.16
		C85.26,370.48,83.75,369.08,83.7,367.4z"/>
	<path class="st1" d="M183.74,387.62c-3.31-1.72-6.83-2.29-10.49-1.76c-4.77,0.68-9.53,1.43-14.29,2.22
		c-2.06,0.34-4.21,0.63-5.73,2.25c-1.38,1.46-2.66,3.03-3.87,4.66c-3.01,4.06-6.43,7.73-10.67,10.54c-1.98,1.33-4.03,2.57-6.16,3.92
		c0.7,1.82,1.01,3.67,0.19,5.52c-0.69,1.57-0.5,3.12-0.15,4.75c0.46,2.1,0.79,4.24,0.96,6.39c0.16,1.97,0.03,3.95,0.03,6.02
		c6.47-0.74,11.05,2.48,14.59,7.7c0.15,0,0.29,0.03,0.41,0c2.11-0.54,3.97,0,5.79,1.11c1.01,0.62,2.16,1.12,3.31,1.42
		c2.6,0.67,4.81-0.18,6.04-2.18c-0.27,0.03-0.5,0.03-0.73,0.06c-2.85,0.38-4.63,0.15-8-1.61c-0.65-0.34-1.03-0.47-1.16-0.54
		c-1.39-0.54-1.86-0.49-4.8-1.11c-1.34-1.87-3.22-3.62-5.43-4.95c-2.22-1.33-4.7-1.97-7.29-2.2c-0.05-0.24-0.11-0.4-0.1-0.56
		c0.26-3.44-0.07-6.8-1.2-10.1c-0.22-0.63-0.27-1.44-0.07-2.08c0.67-2.11,1.2-4.22,0.42-6.35c1.86-1.31,3.62-2.54,5.37-3.81
		c3.48-2.54,6.55-5.49,9.14-8.97c1.64-2.21,3.3-4.47,5.25-6.38c2.27-2.21,5.37-2.6,7.01,0.95c0.47,0.99,1.6,1.87,2.64,2.38
		c2.94,1.4,5.92,0.86,8.81-0.35c0.68-0.29,1.31-0.71,1.96-1.07l-0.02-0.44c-3.88-1.4-7.75-2.81-11.63-4.23
		c1.21-0.3,2.42-0.42,3.62-0.57c1.86-0.22,3.44,0.32,4.83,1.59c0.48,0.45,1.11,0.76,1.72,1.04c2.26,1,4.49,0.6,6.66-0.31
		c1.37-0.59,2.83-1.05,3.91-2.36C184.29,387.97,184.03,387.77,183.74,387.62z"/>
	<path class="st1" d="M102.98,439.42c0.37,0.06,0.73,0.06,1.14,0.1c1.55-2.55,3.56-4.59,6.15-6.05c2.61-1.47,5.41-1.91,8.39-1.54
		c0-0.32,0.02-0.53,0-0.72c-0.44-4.03-0.59-8.04,0.68-11.95c0.54-1.64,0.27-3.15-0.31-4.73c-0.34-0.91-0.37-1.97-0.35-2.96
		c0.02-0.79,0.31-1.57,0.48-2.32c-0.13-0.11-0.2-0.19-0.28-0.25c-0.14-0.08-0.29-0.17-0.44-0.25c-6.85-3.58-12.51-8.52-16.86-14.94
		c-2.09-3.07-4.74-5.16-8.56-5.65c-5.01-0.64-10.01-1.42-15.01-2.15c-3.42-0.5-6.65,0.14-9.74,1.58c-0.37,0.17-0.71,0.42-1.21,0.73
		c1.84,1.42,3.73,2.25,5.76,2.79c2.52,0.65,4.79,0.15,6.82-1.53c1.92-1.61,5.94-1.92,8.2-0.71c-3.82,1.38-7.68,2.77-11.54,4.16
		c0.01,0.13,0.01,0.27,0.02,0.4c0.27,0.18,0.51,0.43,0.8,0.54c1.65,0.55,3.29,1.3,4.99,1.54c3.42,0.46,6.33-0.44,8.01-3.87
		c0.78-1.6,2.27-2.11,3.94-1.49c0.87,0.31,1.8,0.72,2.44,1.36c1.33,1.28,2.63,2.64,3.7,4.14c2.99,4.22,6.36,8.04,10.65,11.01
		c1.85,1.28,3.67,2.62,5.57,3.98c-0.66,1.87-0.4,3.76,0.31,5.59c0.45,1.16,0.27,2.21,0.01,3.36c-0.44,2.07-0.78,4.17-1.02,6.28
		c-0.14,1.22-0.03,2.48-0.03,3.78c-5.5,0.39-9.64,3.11-12.82,7.36c-2.23-0.01-4.29,0.36-6.08,1.55c-1.9,1.27-3.94,1.67-6.16,1.47
		c-0.67-0.07-1.35-0.13-2.27-0.21c1.48,1.51,2.78,2.61,4.87,2.37c1.77-0.21,3.35-0.77,4.82-1.7
		C99.59,439.54,101.19,439.07,102.98,439.42z"/>
	<path class="st1" d="M133.87,436.1c-0.29,1.89-0.56,3.82-0.86,5.82c3.98,2.72,5,6.6,4.58,11.15c0.79-0.16,1.39-0.29,2.1-0.42
		c0.32-4.67-0.95-8.61-4.52-11.59c0.18-1.01,0.35-1.89,0.5-2.75c2.48-0.13,5.52,1.89,6.2,4.04c-1.82,4.26-1.96,7.6-0.36,9.89
		c0.53-0.17,1.08-0.35,1.68-0.56c-1.55-3.58-1.07-6.78,1.31-9.62C142.79,438.17,137.91,435.43,133.87,436.1z"/>
	<path class="st1" d="M119.08,441.54c-0.3-1.94-0.6-3.83-0.89-5.67c-4.15-0.62-9.36,2.37-10.44,5.95c2.42,2.78,2.88,5.95,1.37,9.46
		c0.67,0.18,1.23,0.32,1.83,0.49c1.47-3.5,1.08-6.7-0.73-9.77c1.11-2.41,3.85-4.17,6.24-3.93c0.17,0.87,0.34,1.79,0.51,2.75
		c-1.73,1.36-2.91,3.04-3.64,5.07c-0.74,2.04-0.93,4.12-0.68,6.36c0.65,0.09,1.26,0.18,1.99,0.3c-0.22-2.21-0.13-4.26,0.61-6.21
		C116.02,444.34,117.35,442.81,119.08,441.54z"/>
	<path class="st1" d="M132.76,444.83c-3.27-4.78-10.21-4.41-13.19-0.15c3.17,2.15,4.78,5.19,4.9,9.07c0.49,0.03,0.88,0.06,1.32,0.08
		c0.27-3.6-0.53-6.75-3.18-9.23c2.13-1.84,5.03-1.8,7.07,0.09c-2.76,2.41-3.52,5.57-3.3,9.13h1.39
		C127.88,449.94,129.59,446.96,132.76,444.83z"/>
	<path class="st1" d="M152.53,442.99c-2.34-1.03-4.49-0.67-6.07,1.1c-1.72,1.93-2.03,4.59-0.72,6.71c0.53-0.22,1.06-0.44,1.61-0.67
		c-0.1-0.44-0.18-0.76-0.27-1.09c-0.43-1.56-0.03-2.93,1.2-3.9c1.17-0.91,2.5-0.85,3.81-0.16c0.56,0.32,1.15,0.54,1.74,0.79
		c1.6,0.68,2.82-0.04,4.17-1.17c-0.72-0.07-1.21-0.03-1.64-0.17C155.07,444,153.79,443.54,152.53,442.99z"/>
	<path class="st1" d="M100.51,442.44c-0.82,0.27-1.56,0.78-2.37,1.05c-1.17,0.37-2.38,0.61-3.61,0.92c1.7,1.39,2.57,1.56,4.43,0.8
		c0.62-0.25,1.21-0.59,1.83-0.83c1.77-0.67,3.54-0.05,4.16,1.72c0.38,1.09,0.27,2.8,0.38,3.99l1.34,0.52
		c0.88-1.79,0.89-3.77,0.08-5.5C105.57,442.63,103.1,441.58,100.51,442.44z"/>
	<path class="st1" d="M128.97,453.78h1.79c0.5-1.72,1-3.36,2.76-4.64c0.2,1.55,0.36,2.89,0.55,4.3c0.47-0.08,0.95-0.17,1.48-0.25
		c0.32-2.38-0.06-4.54-1.18-6.64C131.74,447.12,128.98,450.86,128.97,453.78z"/>
	<path class="st1" d="M117.97,446.32c-1.15,2.08-1.54,4.23-1.22,6.62c0.56,0.05,1.02,0.09,1.39,0.12c0.22-1.42,0.42-2.71,0.65-4.17
		c1.72,1.34,2.24,3.02,2.71,4.71c0.65,0.06,1.2,0.11,1.76,0.15C123.19,450.64,120.95,447.48,117.97,446.32z"/>
	<path class="st1" d="M114.56,441.87c-0.02-0.87-0.71-1.59-1.53-1.56c-0.9,0.02-1.48,0.65-1.47,1.58c0.01,0.99,0.63,1.59,1.6,1.54
		C113.97,443.39,114.57,442.72,114.56,441.87z"/>
	<path class="st1" d="M139.19,440.8c-0.86,0.02-1.44,0.66-1.43,1.59c0.01,0.89,0.63,1.54,1.49,1.56c0.81,0.01,1.52-0.72,1.5-1.56
		C140.73,441.42,140.1,440.79,139.19,440.8z"/>
	<path class="st1" d="M127.64,445.59c0.04-0.82-0.68-1.62-1.48-1.63c-0.83-0.01-1.54,0.68-1.55,1.52c-0.01,0.9,0.69,1.63,1.58,1.64
		C126.95,447.13,127.6,446.45,127.64,445.59z"/>
	<path class="st1" d="M150.11,445.5c-0.93-0.01-1.56,0.66-1.55,1.6c0.02,0.85,0.7,1.5,1.58,1.49c0.85,0,1.52-0.7,1.5-1.55
		C151.61,446.16,150.96,445.5,150.11,445.5z"/>
	<path class="st1" d="M102.05,445.28c-0.9,0.02-1.48,0.65-1.47,1.58c0.01,0.99,0.63,1.59,1.6,1.53c0.81-0.04,1.41-0.7,1.39-1.56
		C103.55,445.97,102.86,445.25,102.05,445.28z"/>
</g>
<g>
	<path class="st2" d="M208.45,344.68h-0.28l-0.63,15.94c-0.12,2.54,1.11,3.49,4.28,4.16v0.32c-3.33-0.08-6.66-0.08-9.99,0v-0.32
		c2.82-0.67,3.77-1.71,3.93-4.16l0.87-16.26c0.16-2.74-0.83-3.77-3.89-4.44v-0.32c2.58,0.08,5.16,0.08,7.77,0l9.32,19.04h0.28
		l8.01-19.04c2.42,0.08,4.88,0.08,7.3,0v0.32c-2.34,0.48-3.41,1.03-3.33,2.9c0.28,6.35,0.6,12.73,1.03,19.11
		c0.12,1.78,0.83,2.3,3.41,2.86v0.32c-3.57-0.08-7.18-0.08-10.75,0v-0.32c2.78-0.59,3.45-1.15,3.37-2.9
		c-0.36-5.91-0.67-11.82-0.87-17.77H228l-9.04,21.3h-0.36L208.45,344.68z"/>
	<path class="st2" d="M239.15,364.79c2.1-0.67,3.09-1.59,4.24-4.32l8.84-21.26h0.36l10.31,22.6c0.87,1.94,1.55,2.62,3.53,2.97v0.32
		c-3.61-0.08-7.22-0.08-10.83,0v-0.32c1.75-0.44,3.01-0.67,3.01-1.78c0-0.32-0.08-0.67-0.28-1.11l-1.94-4.48h-9.95l-1.35,3.21
		c-0.28,0.67-0.4,1.23-0.4,1.71c0,1.39,1.11,2.1,3.25,2.46v0.32c-2.93-0.08-5.87-0.08-8.8,0V364.79z M255.8,355.99l-4.32-10.11
		h-0.28l-4.16,10.11H255.8z"/>
	<path class="st2" d="M268.17,364.79c2.86-0.63,3.37-1.11,3.37-2.9v-19.08c0-1.78-0.52-2.26-3.37-2.9v-0.32
		c3.53,0.08,7.14,0.08,10.71,0v0.32c-2.9,0.63-3.37,1.11-3.37,2.9v8.09h14.2v-8.09c0-1.78-0.52-2.26-3.37-2.9v-0.32
		c3.57,0.08,7.14,0.08,10.71,0v0.32c-2.86,0.63-3.37,1.11-3.37,2.9v19.08c0,1.78,0.52,2.26,3.37,2.9v0.32
		c-3.57-0.08-7.14-0.08-10.71,0v-0.32c2.85-0.63,3.37-1.11,3.37-2.9v-9.56h-14.2v9.56c0,1.78,0.48,2.26,3.37,2.9v0.32
		c-3.57-0.08-7.18-0.08-10.71,0V364.79z"/>
	<path class="st2" d="M299.1,364.79c2.1-0.67,3.09-1.59,4.24-4.32l8.84-21.26h0.36l10.31,22.6c0.87,1.94,1.55,2.62,3.53,2.97v0.32
		c-3.61-0.08-7.22-0.08-10.83,0v-0.32c1.74-0.44,3.01-0.67,3.01-1.78c0-0.32-0.08-0.67-0.28-1.11l-1.94-4.48h-9.95l-1.35,3.21
		c-0.28,0.67-0.4,1.23-0.4,1.71c0,1.39,1.11,2.1,3.25,2.46v0.32c-2.93-0.08-5.87-0.08-8.8,0V364.79z M315.76,355.99l-4.32-10.11
		h-0.28L307,355.99H315.76z"/>
	<path class="st2" d="M351.05,364.79v0.32c-1.35,0.32-2.5,0.59-3.53,0.59c-1.31,0-2.5-0.48-3.61-2.38l-5.35-9.16h-0.48
		c-0.91,0-1.78-0.16-2.62-0.48v8.21c0,1.78,0.52,2.26,3.65,2.9v0.32c-3.69-0.08-7.34-0.08-10.99,0v-0.32
		c2.86-0.63,3.37-1.11,3.37-2.9v-19.08c0-1.78-0.52-2.26-3.37-2.9v-0.32c2.86,0.08,5.67,0.08,8.96,0c6.74-0.2,10.31,2.86,10.31,6.9
		c0,3.01-2.06,5.67-5.23,6.9l3.77,6.15C347.76,362.53,349.67,364.51,351.05,364.79z M343.16,346.83c0-3.77-2.22-5.79-6.34-5.79
		c-0.52,0-1.07,0.08-1.35,0.12v11.1c0.83,0.32,1.63,0.48,2.38,0.48C340.66,352.74,343.16,350.44,343.16,346.83z"/>
	<path class="st2" d="M365.8,364.79v0.32c-3.57-0.08-7.18-0.08-10.71,0v-0.32c2.86-0.63,3.37-1.11,3.37-2.9v-19.08
		c0-1.78-0.52-2.26-3.37-2.9v-0.32c3.53,0.08,7.14,0.08,10.71,0v0.32c-2.9,0.63-3.37,1.11-3.37,2.9v19.08
		C362.43,363.68,362.91,364.16,365.8,364.79z"/>
	<path class="st2" d="M372.07,364.24c0-2.22,0.12-4.36,0.28-6.58h0.28c1.98,4.52,3.77,6.58,6.34,6.58c2.74,0,4.52-1.78,4.52-4.48
		c0-3.05-2.86-4.68-5.79-6.35c-3.09-1.74-6.27-3.61-6.27-7.38c0-4.16,3.33-7.02,8.05-7.02c2.02,0,4.08,0.63,6.19,1.15
		c-0.16,2.06-0.28,4.12-0.28,6.19h-0.32c-1.07-2.54-2.5-5.87-6.19-5.87c-2.5,0-4.24,1.59-4.24,3.93c0,2.46,2.46,3.97,5.12,5.55
		c3.29,1.9,6.94,3.93,6.94,8.17c0,4.48-3.49,7.57-8.25,7.57C376.35,365.7,374.21,365.31,372.07,364.24z"/>
	<path class="st2" d="M392.09,364.79c2.86-0.63,3.37-1.11,3.37-2.9v-19.08c0-1.78-0.52-2.26-3.37-2.9v-0.32
		c3.53,0.08,7.14,0.08,10.71,0v0.32c-2.9,0.63-3.37,1.11-3.37,2.9v8.09h14.2v-8.09c0-1.78-0.52-2.26-3.37-2.9v-0.32
		c3.57,0.08,7.14,0.08,10.71,0v0.32c-2.86,0.63-3.37,1.11-3.37,2.9v19.08c0,1.78,0.52,2.26,3.37,2.9v0.32
		c-3.57-0.08-7.14-0.08-10.71,0v-0.32c2.86-0.63,3.37-1.11,3.37-2.9v-9.56h-14.2v9.56c0,1.78,0.48,2.26,3.37,2.9v0.32
		c-3.57-0.08-7.18-0.08-10.71,0V364.79z"/>
	<path class="st2" d="M437.26,364.79v0.32c-3.57-0.08-7.18-0.08-10.71,0v-0.32c2.86-0.63,3.37-1.11,3.37-2.9v-19.08
		c0-1.78-0.52-2.26-3.37-2.9v-0.32c3.53,0.08,7.14,0.08,10.71,0v0.32c-2.9,0.63-3.37,1.11-3.37,2.9v19.08
		C433.89,363.68,434.37,364.16,437.26,364.79z"/>
	<path class="st3" d="M212.8,406.83v0.31c-3.44-0.08-6.91-0.08-10.31,0v-0.31c2.75-0.61,3.25-1.07,3.25-2.79v-18.37
		c0-1.72-0.5-2.18-3.25-2.79v-0.31c3.4,0.08,6.88,0.08,10.31,0v0.31c-2.79,0.61-3.25,1.07-3.25,2.79v18.37
		C209.55,405.76,210.01,406.22,212.8,406.83z"/>
	<path class="st3" d="M223.76,387.27h-0.27l0.08,9.01l0.04,6.87c0,2.25,0.88,3.06,4.2,3.67v0.31c-3.25-0.08-6.45-0.08-9.66,0v-0.31
		c2.94-0.69,3.74-1.49,3.74-3.67v-16.54c0-2.22-0.96-3.17-3.74-3.74v-0.31c2.33,0.08,4.62,0.08,6.95,0l14.7,17.68h0.31l-0.15-6.95
		v-6.76c0-2.33-0.99-3.13-4.16-3.67v-0.31c3.13,0.08,6.26,0.08,9.43,0v0.31c-2.64,0.53-3.55,1.45-3.55,3.67v21.08h-0.92
		L223.76,387.27z"/>
	<path class="st3" d="M253.82,406.83c3.51-0.61,3.97-1.07,3.97-2.79v-20.09h-1.64c-3.63,0.04-5.58,1.79-6.65,6.19h-0.31
		c0-2.52-0.11-5.04-0.27-7.56h21.66c-0.15,2.52-0.27,5.04-0.27,7.56h-0.31c-1.11-4.39-3.06-6.15-6.68-6.19h-1.68v20.09
		c0,1.72,0.5,2.18,4.01,2.79v0.31c-4.12-0.08-7.71-0.08-11.84,0V406.83z"/>
	<path class="st3" d="M292.9,407.13c-6-0.08-12.03-0.08-17.99,0v-0.31c2.75-0.61,3.25-1.07,3.25-2.79v-18.37
		c0-1.72-0.5-2.18-3.25-2.79v-0.31c5.96,0.08,11.92,0.08,17.87,0c-0.15,2.1-0.27,4.24-0.27,6.34h-0.31c-1.3-3.9-2.94-4.97-8.52-4.97
		h-1.72v9.51h2.29c3.09,0,4.05-0.88,5.23-3.55h0.31c-0.19,2.79-0.19,5.65,0,8.44h-0.31c-1.15-2.71-2.14-3.55-5.23-3.55h-2.29v10.96
		h1.83c5.35,0,7.07-1.18,8.56-5.81h0.27C292.63,402.32,292.75,404.73,292.9,407.13z"/>
	<path class="st3" d="M320.25,406.83v0.31c-1.3,0.31-2.41,0.57-3.4,0.57c-1.26,0-2.41-0.46-3.48-2.29l-5.16-8.82h-0.46
		c-0.88,0-1.72-0.15-2.52-0.46v7.91c0,1.72,0.5,2.18,3.51,2.79v0.31c-3.55-0.08-7.07-0.08-10.58,0v-0.31
		c2.75-0.61,3.25-1.07,3.25-2.79v-18.37c0-1.72-0.5-2.18-3.25-2.79v-0.31c2.75,0.08,5.46,0.08,8.63,0c6.49-0.19,9.93,2.75,9.93,6.65
		c0,2.9-1.99,5.46-5.04,6.65l3.63,5.92C317.08,404.65,318.91,406.56,320.25,406.83z M312.65,389.53c0-3.63-2.14-5.58-6.11-5.58
		c-0.5,0-1.03,0.08-1.3,0.11v10.69c0.8,0.31,1.57,0.46,2.29,0.46C310.24,395.22,312.65,393,312.65,389.53z"/>
	<path class="st3" d="M328.42,387.27h-0.27l0.08,9.01l0.04,6.87c0,2.25,0.88,3.06,4.2,3.67v0.31c-3.25-0.08-6.46-0.08-9.66,0v-0.31
		c2.94-0.69,3.74-1.49,3.74-3.67v-16.54c0-2.22-0.96-3.17-3.74-3.74v-0.31c2.33,0.08,4.62,0.08,6.95,0l14.7,17.68h0.31l-0.15-6.95
		v-6.76c0-2.33-0.99-3.13-4.16-3.67v-0.31c3.13,0.08,6.26,0.08,9.43,0v0.31c-2.64,0.53-3.55,1.45-3.55,3.67v21.08h-0.92
		L328.42,387.27z"/>
	<path class="st3" d="M349.7,406.83c2.02-0.65,2.98-1.53,4.09-4.16l8.52-20.47h0.34l9.93,21.77c0.84,1.87,1.49,2.52,3.4,2.86v0.31
		c-3.48-0.08-6.95-0.08-10.43,0v-0.31c1.68-0.42,2.9-0.65,2.9-1.72c0-0.31-0.08-0.65-0.27-1.07l-1.87-4.32h-9.59l-1.3,3.09
		c-0.27,0.65-0.38,1.18-0.38,1.64c0,1.34,1.07,2.02,3.13,2.37v0.31c-2.83-0.08-5.65-0.08-8.48,0V406.83z M365.74,398.35l-4.16-9.74
		h-0.27l-4.01,9.74H365.74z"/>
	<path class="st3" d="M380.14,406.83c3.51-0.61,3.97-1.07,3.97-2.79v-20.09h-1.64c-3.63,0.04-5.58,1.79-6.65,6.19h-0.31
		c0-2.52-0.11-5.04-0.27-7.56h21.66c-0.15,2.52-0.27,5.04-0.27,7.56h-0.3c-1.11-4.39-3.06-6.15-6.68-6.19h-1.68v20.09
		c0,1.72,0.5,2.18,4.01,2.79v0.31c-4.12-0.08-7.71-0.08-11.84,0V406.83z"/>
	<path class="st3" d="M411.54,406.83v0.31c-3.44-0.08-6.91-0.08-10.31,0v-0.31c2.75-0.61,3.25-1.07,3.25-2.79v-18.37
		c0-1.72-0.5-2.18-3.25-2.79v-0.31c3.4,0.08,6.88,0.08,10.31,0v0.31c-2.79,0.61-3.25,1.07-3.25,2.79v18.37
		C408.29,405.76,408.75,406.22,411.54,406.83z"/>
	<path class="st3" d="M440.68,394.49c0,7.68-5.73,13.21-12.79,13.21c-7.29,0-12.45-5.12-12.45-12.49c0-7.41,5.54-13.21,12.79-13.21
		C435.56,382,440.68,387.12,440.68,394.49z M436.37,395.75c0-7.37-3.32-12.34-8.71-12.34c-4.74,0-7.91,4.28-7.91,10.54
		c0,7.37,3.51,12.34,8.67,12.34C433.23,406.29,436.37,402.01,436.37,395.75z"/>
	<path class="st3" d="M449.85,387.27h-0.27l0.08,9.01l0.04,6.87c0,2.25,0.88,3.06,4.2,3.67v0.31c-3.25-0.08-6.46-0.08-9.66,0v-0.31
		c2.94-0.69,3.74-1.49,3.74-3.67v-16.54c0-2.22-0.96-3.17-3.74-3.74v-0.31c2.33,0.08,4.62,0.08,6.95,0l14.7,17.68h0.31l-0.15-6.95
		v-6.76c0-2.33-0.99-3.13-4.16-3.67v-0.31c3.13,0.08,6.26,0.08,9.43,0v0.31c-2.64,0.53-3.55,1.45-3.55,3.67v21.08h-0.92
		L449.85,387.27z"/>
	<path class="st3" d="M471.32,406.83c2.02-0.65,2.98-1.53,4.09-4.16l8.52-20.47h0.34l9.93,21.77c0.84,1.87,1.49,2.52,3.4,2.86v0.31
		c-3.48-0.08-6.95-0.08-10.43,0v-0.31c1.68-0.42,2.9-0.65,2.9-1.72c0-0.31-0.08-0.65-0.27-1.07l-1.87-4.32h-9.59l-1.3,3.09
		c-0.27,0.65-0.38,1.18-0.38,1.64c0,1.34,1.07,2.02,3.13,2.37v0.31c-2.83-0.08-5.65-0.08-8.48,0V406.83z M487.36,398.35l-4.16-9.74
		h-0.27l-4.01,9.74H487.36z"/>
	<path class="st3" d="M500.81,406.83c2.75-0.61,3.25-1.07,3.25-2.79v-18.37c0-1.72-0.5-2.18-3.25-2.79v-0.31
		c3.67,0.08,7.37,0.08,11.04,0v0.31c-3.51,0.61-3.97,1.07-3.97,2.79v20.09h1.64c4.54,0,6.38-1.38,7.87-6.26h0.31
		c-0.04,2.52,0.08,5.08,0.23,7.64c-5.69-0.08-11.42-0.08-17.11,0V406.83z"/>
	<path class="st3" d="M205.35,440.49v-12.79c0-1.72-0.5-2.18-3.25-2.79v-0.31c3.4,0.08,6.87,0.08,10.31,0v0.31
		c-2.79,0.61-3.25,1.07-3.25,2.79V439c0,6.26,2.25,9.28,7.03,9.28c4.66,0,7.33-2.94,7.33-8.1v-12.49c0-1.72-0.46-2.18-3.78-2.79
		v-0.31c3.02,0.08,6.03,0.08,9.05,0v0.31c-3.09,0.61-3.59,1.07-3.59,2.79v12.11c0,6.38-3.44,9.97-9.7,9.97
		C208.9,449.77,205.35,446.6,205.35,440.49z"/>
	<path class="st3" d="M238.13,429.3h-0.27l0.08,9.01l0.04,6.88c0,2.25,0.88,3.05,4.2,3.67v0.31c-3.25-0.08-6.45-0.08-9.66,0v-0.31
		c2.94-0.69,3.74-1.49,3.74-3.67v-16.54c0-2.21-0.96-3.17-3.74-3.74v-0.31c2.33,0.08,4.62,0.08,6.95,0l14.7,17.68h0.31l-0.15-6.95
		v-6.76c0-2.33-0.99-3.13-4.16-3.67v-0.31c3.13,0.08,6.26,0.08,9.43,0v0.31c-2.64,0.53-3.55,1.45-3.55,3.67v21.08h-0.92
		L238.13,429.3z"/>
	<path class="st3" d="M273.92,448.85v0.31c-3.44-0.08-6.91-0.08-10.31,0v-0.31c2.75-0.61,3.25-1.07,3.25-2.79v-18.37
		c0-1.72-0.5-2.18-3.25-2.79v-0.31c3.4,0.08,6.88,0.08,10.31,0v0.31c-2.79,0.61-3.25,1.07-3.25,2.79v18.37
		C270.67,447.78,271.13,448.24,273.92,448.85z"/>
	<path class="st3" d="M280.64,427.69c-0.92-1.95-1.64-2.48-3.36-2.79v-0.31c3.51,0.08,6.95,0.08,10.46,0v0.31
		c-1.95,0.34-2.94,0.92-2.94,1.83c0,0.27,0.11,0.57,0.27,0.96l6.45,15.28h0.27l5.39-14.02c0.23-0.61,0.38-1.18,0.38-1.68
		c0-1.26-0.95-1.99-3.06-2.37v-0.31c2.83,0.08,5.69,0.08,8.48,0v0.31c-2.1,0.73-3.09,1.79-4.05,4.24l-8.13,20.24h-0.34
		L280.64,427.69z"/>
	<path class="st3" d="M324.18,449.16c-6-0.08-12.03-0.08-17.99,0v-0.31c2.75-0.61,3.25-1.07,3.25-2.79v-18.37
		c0-1.72-0.5-2.18-3.25-2.79v-0.31c5.96,0.08,11.92,0.08,17.87,0c-0.15,2.1-0.27,4.24-0.27,6.34h-0.31c-1.3-3.9-2.94-4.96-8.52-4.96
		h-1.72v9.51h2.29c3.09,0,4.05-0.88,5.23-3.55h0.31c-0.19,2.79-0.19,5.65,0,8.44h-0.31c-1.15-2.71-2.14-3.55-5.23-3.55h-2.29v10.96
		h1.83c5.35,0,7.07-1.18,8.55-5.81h0.27C323.92,444.34,324.03,446.75,324.18,449.16z"/>
	<path class="st3" d="M351.34,448.85v0.31c-1.3,0.31-2.41,0.57-3.4,0.57c-1.26,0-2.41-0.46-3.48-2.29l-5.16-8.82h-0.46
		c-0.88,0-1.72-0.15-2.52-0.46v7.91c0,1.72,0.5,2.18,3.51,2.79v0.31c-3.55-0.08-7.07-0.08-10.58,0v-0.31
		c2.75-0.61,3.25-1.07,3.25-2.79v-18.37c0-1.72-0.5-2.18-3.25-2.79v-0.31c2.75,0.08,5.46,0.08,8.63,0c6.49-0.19,9.93,2.75,9.93,6.65
		c0,2.9-1.99,5.46-5.04,6.65l3.63,5.92C348.17,446.67,350,448.58,351.34,448.85z M343.74,431.55c0-3.63-2.14-5.58-6.11-5.58
		c-0.5,0-1.03,0.08-1.3,0.11v10.69c0.8,0.3,1.57,0.46,2.29,0.46C341.33,437.24,343.74,435.03,343.74,431.55z"/>
	<path class="st3" d="M355.35,448.32c0-2.14,0.11-4.2,0.27-6.34h0.27c1.91,4.35,3.63,6.34,6.11,6.34c2.63,0,4.35-1.72,4.35-4.32
		c0-2.94-2.75-4.51-5.58-6.11c-2.98-1.68-6.03-3.48-6.03-7.1c0-4.01,3.21-6.76,7.75-6.76c1.95,0,3.93,0.61,5.96,1.11
		c-0.15,1.99-0.27,3.97-0.27,5.96h-0.3c-1.03-2.44-2.41-5.65-5.96-5.65c-2.41,0-4.09,1.53-4.09,3.78c0,2.37,2.37,3.82,4.93,5.35
		c3.17,1.83,6.68,3.78,6.68,7.87c0,4.32-3.36,7.29-7.94,7.29C359.48,449.73,357.42,449.35,355.35,448.32z"/>
	<path class="st3" d="M385.15,448.85v0.31c-3.44-0.08-6.91-0.08-10.31,0v-0.31c2.75-0.61,3.25-1.07,3.25-2.79v-18.37
		c0-1.72-0.5-2.18-3.25-2.79v-0.31c3.4,0.08,6.88,0.08,10.31,0v0.31c-2.79,0.61-3.25,1.07-3.25,2.79v18.37
		C381.9,447.78,382.36,448.24,385.15,448.85z"/>
	<path class="st3" d="M394.7,448.85c3.51-0.61,3.97-1.07,3.97-2.79v-20.09h-1.64c-3.63,0.04-5.58,1.79-6.65,6.19h-0.31
		c0-2.52-0.11-5.04-0.27-7.56h21.66c-0.15,2.52-0.27,5.04-0.27,7.56h-0.3c-1.11-4.39-3.06-6.15-6.68-6.19h-1.68v20.09
		c0,1.72,0.5,2.18,4.01,2.79v0.31c-4.12-0.08-7.71-0.08-11.84,0V448.85z"/>
	<path class="st3" d="M420.71,448.85c3.51-0.61,4.01-1.07,4.01-2.79v-6.84l-6.53-11.5c-0.8-1.41-1.68-2.22-3.25-2.83v-0.31
		c3.25,0.08,6.49,0.08,9.74,0v0.31c-1.76,0.42-2.33,0.84-2.33,1.45c0,0.38,0.19,0.8,0.46,1.34l4.85,9.36h0.31l3.71-8.1
		c0.38-0.92,0.65-1.6,0.65-2.14c0-0.92-0.73-1.49-2.44-1.91v-0.31c2.48,0.08,5.04,0.08,7.52,0v0.31c-2.06,0.99-3.13,2.06-4.2,4.24
		l-4.62,9.66v7.26c0,1.72,0.46,2.18,4.01,2.79v0.31c-4.16-0.08-7.71-0.08-11.88,0V448.85z"/>
</g>
</svg>
